As far as I can tell these have never been posted in 720p anywhere. 																											                                                                        These are my rips from the rerun airing on my local station.     																									                                                                                                                E07 had to many dropouts to release so I will upload E07 from another source in XVID for anyone who is interested and all credit to the original uploader for that episode. 																																						                                             The rest of Season four that I have will follow shortly. 																																									                                                         The source files are long gone so there can be no corrections if there are any errors. 																																						                                             Each episode was checked at several places. 																																										                                                                   Enjoy and please share.																																		                                                                     I will release what I have as time and space permit. 																														                                                                     When I am done with Cold Case I will start what I have of Without A Trace from the same source.																																										TTLTTLTTLTTLTTLTTLTTLTTLTTLTTLTTLTTLTTLTTLTTLTTLTTLTTLTTLTTLTTL																																																																																				                                   Cold_Case_S04_E13_720p.HDTV.x264_TTL.mkv
Format                           : Matroska
File size                        : 1.09 GiB
Duration                         : 41mn 14s
Overall bit rate                 : 3 799 Kbps
Writing application              : HandBrake 0.9.5
Writing library                  : libmkv 0.6.4.1

Video
ID                               : 1
Format                           : AVC
Format/Info                      : Advanced Video Codec
Format profile                   : High@L3.1
Format settings, CABAC           : Yes
Format settings, ReFrames        : 4 frames
Muxing mode                      : Container profile=Unknown@3.1
Codec ID                         : V_MPEG4/ISO/AVC
Duration                         : 41mn 11s
Bit rate                         : 3 595 Kbps
Nominal bit rate                 : 3 665 Kbps
Width                            : 1 280 pixels
Height                           : 720 pixels
Display aspect ratio             : 16:9
Frame rate mode                  : Variable
Frame rate                       : 29.970 fps
Resolution                       : 8 bits
Colorimetry                      : 4:2:0
Scan type                        : Progressive
Bits/(Pixel*Frame)               : 0.130
Stream size                      : 1.03 GiB (95%)
Writing library                  : x264 core 112

Audio
ID                               : 2
Format                           : AC-3
Format/Info                      : Audio Coding 3
Codec ID                         : A_AC3
Duration                         : 41mn 14s
Bit rate mode                    : Constant
Bit rate                         : 128 Kbps
Channel(s)                       : 2 channels
Channel positions                : L R
Sampling rate                    : 48.0 KHz
Stream size                      : 37.8 MiB (3%)

